. 
  
http://www.torrenting.com/        :     Greatest Movie Tracker on The Net!!!
 
http://www.Torrenting.com          :     Once & For all ;)


               www . Torrenting . Com 

(((((((((((((= Enjoy No RAR releases =))))))))))))))))))))


...................................NFO:....................................

.                                Monster Mutt 2011 DVDRip Xvid AC3-Freebee


General
Format : AVI
Format/Info : Audio Video Interleave
File size : 1.40 GiB
Duration : 1h 27mn
Overall bit rate : 2 272 Kbps
Writing application : VirtualDubMod 1.5.10.2 (build 2542/release)
Writing library : VirtualDubMod build 2542/release

Video
ID : 0
Format : MPEG-4 Visual
Format profile : Advanced Simple@L5
Format settings, BVOP : 2
Format settings, QPel : Yes
Format settings, GMC : No warppoints
Format settings, Matrix : Default (MPEG)
Codec ID : XVID
Codec ID/Hint : XviD
Duration : 1h 27mn
Bit rate : 1 815 Kbps
Width : 720 pixels
Height : 400 pixels
Display aspect ratio : 16:9
Frame rate : 23.976 fps
Color space : YUV
Chroma subsampling : 4:2:0
Bit depth : 8 bits
Scan type : Progressive
Compression mode : Lossy
Bits/(Pixel*Frame) : 0.263
Stream size : 1.11 GiB (80%)
Writing library : XviD 63

Audio
ID : 1
Format : AC-3
Format/Info : Audio Coding 3
Mode extension : CM (complete main)
Codec ID : 2000
Duration : 1h 27mn
Bit rate mode : Constant
Bit rate : 448 Kbps
Channel(s) : 6 channels
Channel positions : Front: L C R, Side: L R, LFE
Sampling rate : 48.0 KHz
Bit depth : 16 bits
Compression mode : Lossy
Stream size : 282 MiB (20%)
Alignment : Split accross interleaves
Interleave, duration : 42 ms (1.00 video frame)
Interleave, preload duration : 500 ms

Actors: Rhiannon Leigh Wryn, Bart Johnson
Directors: Todd Tucker
Language: English
Subtitle: English
Rated: NR (Not Rated)
Studio: Millennium Media Services
DVD Release Date: January 4, 2011
Run Time: 87 minutes

Sample Included: Yes
Encoder: Freebee269

[color=blue][b]Screenshots[/b][/color]

[imgw]http://bitpic.bitboxes.co.uk/images/722c7e5731e.png[/imgw]

[imgw]http://bitpic.bitboxes.co.uk/images/57509d069ef.png[/imgw]

[imgw]http://bitpic.bitboxes.co.uk/images/31746db5dec.png[/imgw]


[imgw]http://bitpic.bitboxes.co.uk/images/479c06cbaa1.png[/imgw]

[imgw]http://bitpic.bitboxes.co.uk/images/337c7c559f4.png[/imgw]

[color=Darkblue][b]eNJOY[/b][/color]